<svg xmlns="http://www.w3.org/2000/svg" xmlns:xlink="http://www.w3.org/1999/xlink" width="24px" height="24px" viewBox="0 0 24 24" version="1.1" fill="#000000">
  <g id="surface53980">
    <path style=" stroke:none;fill-rule:nonzero;fill:#000000;fill-opacity:1;" d="M 20 6 L 8 6 C 6.894531 6 6 6.894531 6 8 L 6 20 C 6 21.105469 6.894531 22 8 22 L 20 22 C 21.105469 22 22 21.105469 22 20 L 22 8 C 22 6.894531 21.105469 6 20 6 Z M 20 20 L 8 20 L 8 8 L 20 8 Z M 20 20 "/>
    <path style=" stroke:none;fill-rule:nonzero;fill:#000000;fill-opacity:1;" d="M 4 4 L 17 4 C 17.550781 4 18 3.550781 18 3 C 18 2.449219 17.550781 2 17 2 L 4 2 C 2.894531 2 2 2.894531 2 4 L 2 17 C 2 17.550781 2.449219 18 3 18 C 3.550781 18 4 17.550781 4 17 Z M 4 4 "/>
  </g>
</svg>